<?xml version="1.0" encoding="utf-8"?>
<!-- Generator: Adobe Illustrator 12.0.0, SVG Export Plug-In . SVG Version: 6.00 Build 51448)  -->
<!DOCTYPE svg PUBLIC "-//W3C//DTD SVG 1.1//EN" "http://www.w3.org/Graphics/SVG/1.1/DTD/svg11.dtd" [
	<!ENTITY ns_svg "http://www.w3.org/2000/svg">
	<!ENTITY ns_xlink "http://www.w3.org/1999/xlink">
]>
<svg  version="1.1" id="Layer_1" xmlns="&ns_svg;" xmlns:xlink="&ns_xlink;" width="193.274" height="174.833"
	 viewBox="0 0 193.274 174.833" overflow="visible" enable-background="new 0 0 193.274 174.833" xml:space="preserve">
<g>
	<path fill="#004D8D" d="M159.766,78.207l-9.458,0.375l-2.805,12.728l9.03-0.157c0,0,2.378-2.686,4.979-5.156
		c11.146,7.298,27.391,3.71,31.763-10.911C187.425,88.15,172.05,92.83,159.766,78.207z"/>
	<path fill="#A9B2B5" d="M190.811,70.754c-0.533,0.56-1.419,0.935-2.433,0.951c-1.66,0.03-3.021-0.907-3.043-2.095
		c-0.019-1.113,1.155-2.039,2.673-2.172c-7.543-7.273-18.338-6.441-27.268-0.379l-5.828-5.628l-8.59,0.149l4.446,14.908
		l-0.461,2.093l9.458-0.375c12.284,14.623,27.659,9.943,33.509-3.122C192.536,73.476,191.708,72.042,190.811,70.754z
		 M172.728,71.979c-1.66,0.029-3.022-0.909-3.043-2.095s1.308-2.17,2.967-2.199c1.66-0.028,3.023,0.908,3.045,2.095
		C175.717,70.966,174.389,71.95,172.728,71.979z M180.553,71.843c-1.66,0.029-3.023-0.91-3.043-2.096
		c-0.022-1.186,1.308-2.17,2.968-2.199s3.021,0.909,3.045,2.096C183.54,70.829,182.213,71.813,180.553,71.843z"/>
	<path fill="#A9B2B5" d="M160.634,165.171c-15.786-18.613-21.526-47.388-22.389-75.865c2.459-0.191,4.968-0.372,7.516-0.544
		l0.785-3.561c-4.522,0.301-8.915,0.635-13.192,0.999c-7.861,0.667-15.311,1.437-22.353,2.292
		c-16.903,2.053-31.442,4.603-43.743,7.43c-8.931,2.053-16.671,4.251-23.254,6.515c-19.274,6.629-28.646,13.811-28.892,19.477
		c-0.045,1.021,0.123,1.986,0.48,2.875c2.891,3.059,8.955,5.168,17.661,6.16c-0.823,2.957-1.146,4.463-2.563,6.766
		c-12.225-1.42-27.037-4.158-27.189-18.995c-0.112-10.997,13.991-21.255,41.96-30.581c5.539-1.847,11.61-3.658,18.235-5.43
		c1.304-0.349,2.633-0.687,3.958-1.026c14.307-3.668,29.733-6.816,44.378-9.313c7.454-1.271,14.688-2.372,21.473-3.293
		c4.341-0.59,8.509-1.111,12.405-1.548l-1.016-3.405c-2.016,0.229-4.109,0.478-6.293,0.753c1.386-24.785,5.532-46.854,8.635-58.479
		l1.57-5.883l-5.875,1.604c-5.68,1.553-11.643,2.85-17.725,3.857l-0.127,0.021c-1.164,0.191-2.422,0.385-3.843,0.59l-2.028,0.292
		l-0.738,1.912c-4.394,11.388-9.59,34.427-11.808,60.957c-10.778,1.917-22.044,4.202-33.05,6.843
		C72.153,39.495,63.575,10.722,62.957,8.696l-0.64-2.1l-2.168-0.338c-1.574-0.246-2.984-0.48-4.31-0.719l-0.024-0.005
		c-5.885-1.06-11.657-2.396-17.156-3.974L33.218,0l1.035,5.565c5.914,31.814,7.148,58.6,5.836,80.723
		c-27.041,9.605-40.213,20.301-40.088,32.467c0.18,17.52,17.499,20.905,29.908,22.389c-4.422,12.932-9.162,21.389-11.959,25.736
		l-5.117,7.953l9.063-2.707c9.274-2.77,19.594-4.957,30.672-6.504l0.315-0.043c1.347-0.188,2.763-0.371,4.322-0.561l2.015-0.244
		l0.788-1.871c8.91-21.146,12.666-43.712,13.583-64.875c9.262-1.953,19.885-3.777,32.002-5.366
		c-0.185,23.698,2.687,51.957,14.881,70.421l0.896,1.357c0.03,0.004,1.648,0.193,1.648,0.193l4.436,0.518l0.02,0.002
		c10.563,1.326,20.516,3.23,29.584,5.662l10.823,2.902L160.634,165.171z M33.942,127.5c-9.642-1.064-13.678-3.293-15.271-4.619
		c-0.049-0.262-0.074-0.529-0.063-0.813c0.125-2.866,5.662-8.063,19.157-13.607C36.699,115.423,35.391,121.767,33.942,127.5z"/>
	<path fill="#004D8D" d="M143.854,5.495c-5.759,1.573-11.8,2.895-18.075,3.934c-4.977,12.714-11.2,36.267-13.747,62.94
		c7.454-1.271,14.688-2.372,21.473-3.293C134.771,41.542,140.574,17.783,143.854,5.495z"/>
	<path fill="#004D8D" d="M67.654,81.683c-0.229-35.212-9.099-61.854-12.458-72.703c-6.081-1.094-11.93-2.455-17.502-4.055
		c6.778,36.463,8.987,62.26,7.768,83.214c5.539-1.847,11.61-3.658,18.235-5.43C65,82.36,66.329,82.022,67.654,81.683z"/>
	<path fill="#004D8D" d="M133.354,86.201c-7.861,0.667-15.311,1.437-22.353,2.292c-0.809,24.794,2.124,50.875,12.393,72.662
		c10.831,1.359,25.457,3.838,34.57,6.281C140.358,142.73,134.172,113.468,133.354,86.201z"/>
	<path fill="#004D8D" d="M20.894,168.773c9.324-2.783,19.83-5.031,31.189-6.617c9.645-23.557,13.944-46.01,15.175-66.234
		c-8.931,2.053-16.671,4.251-23.254,6.515C40.503,126.16,32.065,144.486,20.894,168.773z"/>
	<path fill="none" d="M18.608,122.068c-0.012,0.283,0.014,0.551,0.063,0.813c1.594,1.326,5.63,3.555,15.271,4.619
		c1.448-5.732,2.757-12.077,3.823-19.039C24.271,114.005,18.733,119.202,18.608,122.068z"/>
	<path fill="#FAA722" d="M61.193,91.835c0.162-0.045,0.331-0.09,0.493-0.135c-0.017,0.005-0.035,0.01-0.052,0.015
		C61.488,91.755,61.337,91.794,61.193,91.835z M147.354,72.375l-0.545-1.828l-0.9-3.019c-3.896,0.437-8.064,0.958-12.405,1.548
		c-6.785,0.922-14.019,2.022-21.473,3.293c-14.645,2.498-30.071,5.645-44.378,9.313c-1.325,0.34-2.654,0.678-3.958,1.026
		c-6.625,1.772-12.696,3.583-18.235,5.43c-27.969,9.326-42.072,19.584-41.96,30.581c0.152,14.836,14.965,17.575,27.189,18.995
		c1.418-2.303,1.74-3.809,2.563-6.766c-8.706-0.992-14.771-3.102-17.661-6.16c-0.049-0.053-0.101-0.104-0.148-0.158
		c-0.76-0.844-1.271-1.75-1.559-2.729c-0.086-0.291-0.158-0.584-0.202-0.889c-0.065-0.443-0.087-0.902-0.065-1.379
		c0.259-5.958,10.115-14.557,31.073-22.438c4.893-1.84,10.382-3.642,16.501-5.361c0.145-0.041,0.296-0.08,0.441-0.121
		c0.889-0.248,1.785-0.495,2.7-0.74c-0.017,0.005-0.034,0.009-0.052,0.014c-0.88,0.235-1.74,0.473-2.596,0.711
		c0.883-0.246,1.773-0.491,2.682-0.734c-0.004,0.001-0.009,0.002-0.013,0.003c1.044-0.279,2.106-0.555,3.186-0.829
		c12.303-3.12,26.839-5.9,43.742-8.056c2.588-0.331,5.225-0.648,7.925-0.948l-1.092,0.069l11.415-4.132l-2.18-2.64l5.974-0.376
		l5.912-0.372l-2.421-2.616L147.354,72.375z M68,90.028c-0.15,0.038-0.31,0.074-0.459,0.112c-0.098,0.025-0.192,0.05-0.29,0.076
		C67.498,90.152,67.751,90.09,68,90.028z"/>
	<path fill="#BC7F04" d="M44.004,102.437c6.583-2.264,14.323-4.462,23.254-6.515c12.301-2.827,26.839-5.377,43.743-7.43
		c7.042-0.855,14.491-1.624,22.353-2.292c4.277-0.364,8.67-0.698,13.192-0.999l0.929-4.214l-8.955,3.175l1.441-2.612l-6.686,1.25
		l-4.454,0.833l1.13-3.172l-10.744,0.676c-1.322,0.147-2.627,0.298-3.922,0.453c-0.012,0.001-0.023,0.003-0.035,0.004
		c-0.085,0.01-0.169,0.021-0.254,0.031c-0.001,0-0.001,0-0.002,0c-3.256,0.39-6.418,0.805-9.506,1.239
		c-0.229,0.032-0.459,0.063-0.686,0.096c-1.817,0.258-3.603,0.524-5.362,0.796c-0.28,0.043-0.558,0.087-0.836,0.131
		c-1.756,0.275-3.488,0.557-5.187,0.846c-0.172,0.03-0.341,0.06-0.514,0.089c-1.676,0.288-3.325,0.581-4.944,0.881
		c-0.124,0.023-0.25,0.045-0.374,0.068c-1.624,0.303-3.213,0.612-4.78,0.926c-0.278,0.056-0.558,0.111-0.835,0.167
		c-1.508,0.306-2.99,0.617-4.445,0.934c-0.276,0.06-0.549,0.121-0.823,0.181c-1.478,0.325-2.937,0.654-4.359,0.989
		c-0.114,0.027-0.225,0.054-0.338,0.081c-1.361,0.322-2.694,0.649-4.004,0.979c-0.249,0.063-0.502,0.125-0.749,0.188
		c-0.974,0.248-1.937,0.498-2.883,0.75c-0.009,0.002-0.018,0.004-0.027,0.007c-0.02,0.005-0.04,0.011-0.06,0.016
		c-1.054,0.281-2.088,0.565-3.107,0.851c-18.402,5.167-31.144,11.071-38.777,16.556c-0.007,0.005-0.015,0.011-0.022,0.016
		c-0.322,0.232-0.635,0.463-0.939,0.693c-0.037,0.028-0.073,0.056-0.109,0.083c-0.907,0.69-1.733,1.373-2.477,2.046
		c-0.025,0.022-0.051,0.045-0.076,0.067c-0.203,0.185-0.396,0.368-0.586,0.551c-0.086,0.083-0.173,0.167-0.257,0.25
		c-0.17,0.168-0.337,0.335-0.497,0.501c-0.094,0.098-0.183,0.194-0.273,0.292c-0.147,0.158-0.295,0.316-0.433,0.473
		c-0.112,0.127-0.215,0.253-0.321,0.38c-0.19,0.227-0.371,0.452-0.541,0.675c-0.101,0.133-0.203,0.266-0.297,0.397
		c-0.087,0.121-0.168,0.241-0.249,0.36c-0.093,0.138-0.183,0.276-0.268,0.413c-0.068,0.109-0.137,0.218-0.2,0.327
		c-0.098,0.167-0.187,0.333-0.273,0.497c-0.04,0.076-0.084,0.153-0.121,0.228c-0.116,0.234-0.218,0.466-0.31,0.695
		c-0.029,0.074-0.053,0.147-0.081,0.221c-0.061,0.164-0.117,0.328-0.165,0.489c-0.025,0.082-0.047,0.164-0.069,0.246
		c-0.042,0.159-0.076,0.316-0.105,0.471c-0.014,0.071-0.029,0.143-0.04,0.213c-0.034,0.222-0.06,0.442-0.069,0.657
		c-0.021,0.477,0,0.936,0.065,1.379c0.044,0.305,0.116,0.598,0.202,0.889c0.287,0.979,0.799,1.885,1.559,2.729
		c0.048,0.055,0.1,0.105,0.148,0.158c-0.357-0.889-0.525-1.854-0.48-2.875C15.358,116.248,24.729,109.066,44.004,102.437z"/>
</g>
</svg>
