<?xml version="1.0" encoding="utf-8"?>
<!-- Generator: Adobe Illustrator 12.0.0, SVG Export Plug-In . SVG Version: 6.00 Build 51448)  -->
<!DOCTYPE svg PUBLIC "-//W3C//DTD SVG 1.1//EN" "http://www.w3.org/Graphics/SVG/1.1/DTD/svg11.dtd" [
	<!ENTITY ns_svg "http://www.w3.org/2000/svg">
	<!ENTITY ns_xlink "http://www.w3.org/1999/xlink">
]>
<svg  version="1.1" id="Layer_1" xmlns="&ns_svg;" xmlns:xlink="&ns_xlink;" width="76.51" height="76.51"
	 viewBox="0 0 76.51 76.51" overflow="visible" enable-background="new 0 0 76.51 76.51" xml:space="preserve">
<g>
	<g>
		<path fill="#636466" d="M72.501,38.255c0,18.883-15.363,34.246-34.246,34.246c-18.884,0-34.246-15.363-34.246-34.246
			S19.371,4.009,38.255,4.009C57.138,4.009,72.501,19.372,72.501,38.255z M38.255,0C17.161,0,0,17.161,0,38.255
			S17.161,76.51,38.255,76.51S76.51,59.349,76.51,38.255S59.349,0,38.255,0z"/>
	</g>
	<path fill="#636466" d="M48.103,7.865H28.407c-4.828,0-8.755,4.21-8.755,9.384v41.725c0,5.176,3.928,9.385,8.755,9.385h19.695
		c4.828,0,8.756-4.209,8.756-9.385V17.249C56.858,12.075,52.931,7.865,48.103,7.865z M52.851,58.974h-0.002
		c0,2.963-2.129,5.375-4.746,5.375H28.407c-2.617,0-4.746-2.412-4.746-5.375V17.249c0-2.964,2.129-5.375,4.746-5.375h19.695
		c2.617,0,4.748,2.412,4.748,5.375V58.974L52.851,58.974z"/>
	<g>
		<ellipse fill="#636466" cx="38.255" cy="60.759" rx="2.621" ry="2.865"/>
	</g>
	<g>
		<rect x="27.678" y="18.328" fill="#444648" width="21.153" height="37.384"/>
	</g>
</g>
</svg>
