<?xml version="1.0" encoding="utf-8"?>
<!-- Generator: Adobe Illustrator 12.0.0, SVG Export Plug-In . SVG Version: 6.00 Build 51448)  -->
<!DOCTYPE svg PUBLIC "-//W3C//DTD SVG 1.1//EN" "http://www.w3.org/Graphics/SVG/1.1/DTD/svg11.dtd" [
	<!ENTITY ns_svg "http://www.w3.org/2000/svg">
	<!ENTITY ns_xlink "http://www.w3.org/1999/xlink">
]>
<svg  version="1.1" id="Layer_1" xmlns="&ns_svg;" xmlns:xlink="&ns_xlink;" width="76.51" height="76.51"
	 viewBox="0 0 76.51 76.51" overflow="visible" enable-background="new 0 0 76.51 76.51" xml:space="preserve">
<g>
	<path fill="#333333" d="M21.156,39.994h33.679l0,0c0.605,0,1.095-0.49,1.095-1.095s-0.49-1.095-1.095-1.095l0,0H21.156l0,0
		c-0.605,0-1.095,0.49-1.095,1.095S20.551,39.994,21.156,39.994L21.156,39.994z"/>
</g>
<g>
	<path fill="#636466" d="M35.875,34.823v7.415l0,0c0,1.107,0.897,2.004,2.004,2.004s2.004-0.897,2.004-2.004l0,0v-7.415l0,0
		c0-1.107-0.897-2.004-2.004-2.004S35.875,33.716,35.875,34.823L35.875,34.823z"/>
</g>
<g>
	<path fill="#636466" d="M72.501,38.255c0,18.883-15.363,34.246-34.247,34.246S4.009,57.139,4.009,38.255S19.372,4.009,38.255,4.009
		S72.501,19.372,72.501,38.255z M38.255,0C17.161,0,0,17.161,0,38.255C0,59.349,17.161,76.51,38.255,76.51
		c21.094,0,38.255-17.161,38.255-38.255C76.51,17.161,59.349,0,38.255,0z"/>
</g>
<path fill="#636466" d="M39.991,13.308V8.067c0-1.107-0.897-2.004-2.004-2.004s-2.005,0.897-2.005,2.004v5.241
	c0.636-0.189,1.308-0.294,2.005-0.294S39.354,13.119,39.991,13.308z"/>
<path fill="#404040" d="M36.711,28.002c0.006,0.001,0.012,0.002,0.017,0.003V27.92L36.711,28.002z"/>
<path fill="#404040" d="M39.455,27.968c0.006-0.001,0.013-0.004,0.02-0.005l-0.02-0.092V27.968z"/>
<path fill="#636466" d="M51.627,66.436l-8.494-40.558c1.179-1.262,1.907-2.95,1.907-4.809c0-3.193-2.134-5.895-5.05-6.761
	c-0.636-0.189-1.308-0.294-2.004-0.294s-1.369,0.105-2.005,0.294c-2.916,0.866-5.05,3.567-5.05,6.761
	c0,1.954,0.799,3.725,2.087,5.003l-8.385,40.039c-0.227,1.083,0.467,2.146,1.551,2.373c1.083,0.227,2.146-0.467,2.373-1.551
	l8.153-38.931l0.017-0.082v-4.086c-1.051-0.48-1.788-1.536-1.788-2.766c0-1.68,1.367-3.046,3.046-3.046s3.046,1.367,3.046,3.046
	c0,1.144-0.642,2.131-1.578,2.651v4.15l0.02,0.092l8.229,39.295c0.227,1.083,1.289,1.778,2.373,1.551
	C51.16,68.582,51.854,67.52,51.627,66.436z"/>
</svg>
