<?xml version="1.0" encoding="utf-8"?>
<!-- Generator: Adobe Illustrator 12.0.0, SVG Export Plug-In . SVG Version: 6.00 Build 51448)  -->
<!DOCTYPE svg PUBLIC "-//W3C//DTD SVG 1.1//EN" "http://www.w3.org/Graphics/SVG/1.1/DTD/svg11.dtd" [
	<!ENTITY ns_svg "http://www.w3.org/2000/svg">
	<!ENTITY ns_xlink "http://www.w3.org/1999/xlink">
]>
<svg  version="1.1" id="Layer_1" xmlns="&ns_svg;" xmlns:xlink="&ns_xlink;" width="76.51" height="76.51"
	 viewBox="0 0 76.51 76.51" overflow="visible" enable-background="new 0 0 76.51 76.51" xml:space="preserve">
<g>
	<path fill="#404040" d="M30.992,16.115c-0.825-0.362-1.773-0.458-2.71-0.207l-10.589,2.837c-2.193,0.587-6.488,1.641-5.9,3.834
		c0.55,2.057,5.197,4.384,7.583,4.183L17.92,21.33c0.04-0.012,0.074-0.032,0.113-0.042l6.285-1.684
		c1.608-0.431,3.251,0.487,3.669,2.051c0.329,1.228-0.95,2.555-2.839,2.576c0.247,1.272,2.868,0.488,5.053-0.18v-4.282
		C30.2,18.465,30.488,17.231,30.992,16.115z"/>
	<path fill="#404040" d="M30.2,45.89h-1.915v-2.412l-0.007-0.009h-2.412V41.14h-2.329v-2.398H21.14v-2.413l-0.076-0.076H18.65
		v-2.413l-0.03-0.03h-2.412v-2.413l-0.052-0.053h-2.412V29.28c-1.579-0.757-3.528-0.486-4.834,0.822c-1.657,1.657-1.657,4.343,0,6
		l21.325,21.326c-0.017-0.227-0.034-0.454-0.034-0.685L30.2,45.89L30.2,45.89z"/>
	<path fill="#404040" d="M68.845,48.168c-1.222-2.758-6.898-10.979-6.875-14.312L50.983,22.833
		c-0.896-0.895-1.922-1.536-2.971-1.923v14.07l4.368,4.531C55.039,42.168,63.565,48.114,68.845,48.168z"/>
	<path fill="#636466" d="M39.106,12.866c-3.812,0-6.902,3.09-6.902,6.902v36.975c0,3.811,3.091,6.9,6.902,6.9
		c3.811,0,6.901-3.088,6.901-6.9V19.768C46.008,15.956,42.917,12.866,39.106,12.866z M38.86,22.233
		c-1.362,0-2.465-1.104-2.465-2.465s1.104-2.465,2.465-2.465c1.361,0,2.465,1.104,2.465,2.465S40.222,22.233,38.86,22.233z"/>
	<g>
		<path fill="#636466" d="M72.501,38.255c0,18.883-15.363,34.246-34.246,34.246S4.009,57.138,4.009,38.255
			S19.372,4.009,38.255,4.009S72.501,19.372,72.501,38.255z M38.255,0C17.161,0,0,17.161,0,38.255S17.161,76.51,38.255,76.51
			S76.51,59.349,76.51,38.255S59.349,0,38.255,0z"/>
	</g>
</g>
</svg>
